<svg xmlns="http://www.w3.org/2000/svg" viewBox="0 0 120 120">
  <path fill="#3793ef"
    d="M42.35 0c-2.18.01-3.14 0-3.14 0C23.9 22.23 15.31 34.69 0 56.92h36.08c3.07 0 6.44.11 9.91.45l-10.7 14.94L0 120h50.2s.03-.01.05-.01c-.02 0-.05.01-.05.01s69.8-2.14 69.8-63.4C120 2.93 57.73-.06 42.35 0z" />
  <path fill="#1560ab"
    d="M50.2 120s29.15-5.48 29.15-32.64c0-22.25-17.66-28.47-33.36-29.99l-10.7 14.94L0 120h50.2m15.23-14.01c.03-.05.06-.09.09-.13-.03.04-.06.09-.09.13z" />
  <path fill="#012447"
    d="M35.29 72.31c22.15 0 36.64 10.38 33.71 24.93C66.06 111.79 50.2 120 50.2 120s29.15-5.48 29.15-32.64c0-22.25-17.66-28.47-33.36-29.99l-10.7 14.94zM50.2 120z" />
  <path fill="#3793ef"
    d="M0 56.92C15.31 34.69 23.9 22.23 39.22 0c0 0 .96.01 3.14 0C57.73-.06 120 2.93 120 56.6c0 61.27-69.8 63.4-69.8 63.4s29.15-5.47 29.15-32.64-26.33-30.44-43.27-30.44H0z" />
</svg>
